<?xml version="1.0" encoding="UTF-8"?>
<svg width="12px" height="12px" viewBox="0 0 12 12" version="1.1" xmlns="http://www.w3.org/2000/svg" xmlns:xlink="http://www.w3.org/1999/xlink">
    <!-- Generator: Sketch 40.3 (33839) - http://www.bohemiancoding.com/sketch -->
    <title>Group 15</title>
    <desc>Created with Sketch.</desc>
    <defs></defs>
    <g id="1.0" stroke="none" stroke-width="1" fill-rule="evenodd">
        <g id="1@2x" transform="translate(-31.000000, -490.000000)">
            <g id="Group-15" transform="translate(31.000000, 490.000000)">
                <path d="M4.34502164,6.46153846 L8.76923077,6.46153846 L9.23076923,6.46153846 L9.23076923,5.53846154 L8.76923077,5.53846154 L4.31153548,5.53846154 L6.10169532,3.7483017 L6.42805229,3.42194472 L5.77533834,2.76923077 L5.44898137,3.09558775 L3.09558775,5.44898137 L3.00610757,5.53846154 L2.76923077,5.53846154 L2.76923077,6.46153846 L3.03959374,6.46153846 L3.09558775,6.51753247 L5.44898137,8.87092609 L5.77533834,9.19728306 L6.42805229,8.54456911 L6.10169532,8.21821214 L4.34502164,6.46153846 Z M6,12 C9.3137085,12 12,9.3137085 12,6 C12,2.6862915 9.3137085,0 6,0 C2.6862915,0 0,2.6862915 0,6 C0,9.3137085 2.6862915,12 6,12 Z" id="Combined-Shape"></path>
            </g>
        </g>
    </g>
</svg>
