<svg width="1154" height="415" viewBox="0 0 1154 415" xmlns="http://www.w3.org/2000/svg"><title>Group 10</title><defs><linearGradient x1="50%" y1="0%" x2="50%" y2="100%" id="a"><stop stop-color="#FFF" stop-opacity="0" offset="0%"/><stop stop-color="#FFF" offset="100%"/></linearGradient></defs><g fill="none" fill-rule="evenodd"><path stroke="#F8F8FC" stroke-width="4" stroke-linecap="square" d="M370 115l-17.634 9.27 3.368-19.635-14.266-13.906 19.715-2.864L370 70l8.817 17.865 19.715 2.864-14.266 13.906 3.368 19.636zM581 49.723l-17.634 9.271 3.368-19.635-14.266-13.906 19.715-2.865L581 4.723l8.817 17.865 19.715 2.865-14.266 13.906 3.368 19.635zM445 264l-17.634 9.27 3.368-19.635-14.266-13.906 19.715-2.864L445 219l8.817 17.865 19.715 2.864-14.266 13.906 3.368 19.636zM1034.153 272.57l-10.94 35.194-21.28-30.09-36.853.47 22.043-29.537-11.836-34.904 34.903 11.836 29.538-22.042-.471 36.852 30.09 21.28zM223.732 255.363L210.02 277.08l-8.897-24.093-24.891-6.33 20.165-15.907-1.672-25.63 21.36 14.263 23.858-9.51-6.964 24.722 16.417 19.752zM60.863 376.634l-13.712 21.717-8.897-24.093-24.892-6.33 20.165-15.907-1.671-25.63 21.36 14.263 23.858-9.51-6.964 24.722 16.417 19.752zM751.656 141.153l-10.06 15.934-6.528-17.678-18.264-4.644 14.796-11.671-1.227-18.805 15.672 10.465 17.505-6.978-5.11 18.139 12.046 14.492zM1097.656 69.358l-10.06 15.935-6.528-17.678-18.264-4.645L1077.6 51.3l-1.227-18.806 15.672 10.465 17.505-6.978-5.11 18.14 12.046 14.492z"/><path d="M163.84 107.385l-1.414-1.414-5.656 5.656-4.243-4.242-1.414-1.414-5.657 5.656-4.243-4.242-1.414-1.414-5.657 5.656-4.243-4.242-1.414-1.414-8.485 8.485 2.828 2.828 5.657-5.657 5.657 5.657 1.414-1.414 4.243-4.243 5.657 5.657 1.414-1.414 4.243-4.243 5.657 5.657 1.414-1.414 4.242-4.243 5.657 5.657 2.829-2.828-7.071-7.071zM517.456 126.456v2h8v8h8v8h8v8h12v-4h-8v-8h-8v-8h-8v-8h-8v-8h-4v10zM936.93 119.14l-1.932-.518-2.07 7.728-5.796-1.553-1.932-.518-2.07 7.727-5.796-1.553-1.931-.517-2.071 7.727-5.796-1.553-1.931-.517-3.106 11.59 3.863 1.036 2.071-7.727 7.727 2.07.518-1.932 1.553-5.795 7.727 2.07.518-1.932 1.553-5.795 7.727 2.07.518-1.931 1.553-5.796 7.727 2.07 1.036-3.863-9.66-2.588zM251.432 355.73l-1.932-.518-2.07 7.727-5.796-1.553-1.932-.517-2.07 7.727-5.796-1.553-1.932-.518-2.07 7.728-5.796-1.553-1.932-.518L217 383.773l3.864 1.036 2.07-7.728 7.728 2.07.517-1.931 1.553-5.796 7.728 2.07.517-1.931 1.553-5.796 7.728 2.071.517-1.932 1.553-5.795 7.728 2.07 1.035-3.864-9.66-2.588z" fill="#F8F8FC"/><path fill="url(#a)" d="M0 46h1154v365H0z" transform="translate(0 4)"/></g></svg>