<?xml version="1.0" encoding="UTF-8"?>
<svg width="18px" height="18px" viewBox="0 0 18 18" version="1.1" xmlns="http://www.w3.org/2000/svg" xmlns:xlink="http://www.w3.org/1999/xlink">
    <!-- Generator: Sketch 45 (43475) - http://www.bohemiancoding.com/sketch -->
    <title>archive</title>
    <path stroke="transparent" d="M14.8100004,2.41000009 C14.5600004,2.11999989 14.25,2 14,2 L4,2 C3.75,2 3.44000006,2.11660681 3.18843079,2.41236877 L1.25,4.5 C1.08333333,4.70000013 1,4.93286959 1,5.1986084 L1,7 C1,7.5 1.02173733,8 2.01086866,8 C2,8 1.99706054,14.5 2,15 C2.00293946,15.5 2.51086866,16 3,16 L15,16 C15.5,16 16,15.5 16,15 C16,10.3333333 16,8 16,8 C17,8 17,7.5 17,7 L17,5.19999981 C17,4.9333334 16.9166667,4.70000013 16.75,4.5 L14.8100004,2.41000009 Z M4,3 L14,3 L15.5,4.5 L2.5,4.5 L4,3 Z M15,15 L3,15 L3,8 L15,8 L15,15 Z M6.5,11 L11.5,11 L11.5,10 L6.5,10 L6.5,11 Z M2,7 L2,5.5 L16,5.5 L16,7 L2,7 Z" id="Shape"></path>
</svg>
