<?xml version="1.0" encoding="UTF-8"?>
<svg width="18px" height="18px" viewBox="0 0 18 18" version="1.1" xmlns="http://www.w3.org/2000/svg" xmlns:xlink="http://www.w3.org/1999/xlink">
    <title>edit</title>
    <path stroke="transparent" d="M8,3 C5.33333333,3 3.66666667,3 3,3 C2,3 1,4 1,5 C1,6 1,13 1,14 C1,15 2,16 3,16 C4,16 12,16 13,16 C14,16 15,15 15,14 C15,13.3333333 15,11.3333333 15,8 L14,8 C14,11.6666667 14,13.6666667 14,14 C14,14.5 13.5,15 13,15 C12.5,15 3.5,15 3,15 C2.5,15 2,14.5 2,14 C2,13.5 2,5.5 2,5 C2,4.5 2.5,4 3,4 C3.33333333,4 5,4 8,4 L8,3 Z" id="Path-2"></path>
    <path stroke="transparent" d="M7.50967495,10.0647947 L8.88320289,9.37803077 L16.0785489,2.18268477 L15.3470201,1.41421356 L8.15084927,8.61038438 L7.50967495,10.0647947 Z M16.0713221,0.724730677 L16.8028509,1.49320189 C17.1770284,1.88627556 17.1693976,2.50604959 16.7856557,2.88979155 L9.47556203,10.1998852 L6.71622529,11.5795536 C6.46923604,11.7030482 6.16889952,11.602936 6.04540489,11.3559468 C5.97882329,11.2227835 5.97504723,11.0668759 6.03510416,10.9306455 L7.31134847,8.03567162 L14.6399133,0.707106781 C15.0304376,0.316582489 15.6636026,0.316582489 16.0541269,0.707106781 C16.0599307,0.712910623 16.0656629,0.7187857 16.0713221,0.724730677 Z" id="Rectangle-6" fill-rule="nonzero"></path>
</svg>
