<svg width="18" height="18" viewBox="0 0 18 18" xmlns="http://www.w3.org/2000/svg"><title>settings-gear</title><g fill-rule="nonzero"><path d="M8.003 14.215a1.5 1.5 0 0 1 2.117.123l.49.55a.315.315 0 0 0 .548-.179l.073-.732a1.5 1.5 0 0 1 1.813-1.317l.719.157a.315.315 0 0 0 .339-.467l-.371-.635a1.5 1.5 0 0 1 .692-2.131l.674-.295a.315.315 0 0 0 0-.578l-.674-.295a1.5 1.5 0 0 1-.692-2.131l.371-.635a.315.315 0 0 0-.34-.467l-.718.157a1.5 1.5 0 0 1-1.813-1.317l-.073-.732a.315.315 0 0 0-.548-.178l-.49.549a1.5 1.5 0 0 1-2.24 0l-.49-.55a.315.315 0 0 0-.548.179l-.073.732A1.5 1.5 0 0 1 4.956 5.34l-.719-.157a.315.315 0 0 0-.339.467l.371.635a1.5 1.5 0 0 1-.692 2.131l-.674.295a.315.315 0 0 0 0 .578l.674.295a1.5 1.5 0 0 1 .692 2.131l-.371.635a.315.315 0 0 0 .34.467l.718-.157a1.5 1.5 0 0 1 1.813 1.317l.073.732a.315.315 0 0 0 .548.178l.49-.549a1.5 1.5 0 0 1 .123-.123zm.134 1.337a1.315 1.315 0 0 1-2.29-.744l-.073-.732a.5.5 0 0 0-.605-.44l-.718.158a1.315 1.315 0 0 1-1.416-1.949l.371-.635a.5.5 0 0 0-.23-.71l-.674-.296a1.315 1.315 0 0 1 0-2.408l.673-.296a.5.5 0 0 0 .231-.71l-.371-.635A1.315 1.315 0 0 1 4.45 4.206l.718.157a.5.5 0 0 0 .605-.439l.072-.732a1.315 1.315 0 0 1 2.291-.744l.49.55a.5.5 0 0 0 .746 0l.49-.55a1.315 1.315 0 0 1 2.29.744l.073.732a.5.5 0 0 0 .605.44l.718-.158a1.315 1.315 0 0 1 1.416 1.949l-.371.635a.5.5 0 0 0 .23.71l.674.296a1.315 1.315 0 0 1 0 2.408l-.673.296a.5.5 0 0 0-.231.71l.371.635a1.315 1.315 0 0 1-1.416 1.949l-.718-.157a.5.5 0 0 0-.605.439l-.072.732a1.315 1.315 0 0 1-2.291.744l-.49-.55a.5.5 0 0 0-.746 0l-.49.55z"/><path d="M9 12a3 3 0 1 1 0-6 3 3 0 0 1 0 6zm0-1a2 2 0 1 0 0-4 2 2 0 0 0 0 4z"/></g></svg>