<?xml version="1.0" encoding="UTF-8"?>
<svg width="19px" height="19px" viewBox="0 0 19 19" version="1.1" xmlns="http://www.w3.org/2000/svg" xmlns:xlink="http://www.w3.org/1999/xlink">
    <!-- Generator: Sketch 43.2 (39069) - http://www.bohemiancoding.com/sketch -->
    <title>Icon: Interface &gt; Twitter</title>
    <desc>Created with Sketch.</desc>
    <defs></defs>
    <g id="Symbols" stroke="none" stroke-width="1" fill="none" fill-rule="evenodd">
        <g id="Icon:-Interface-&gt;-Twitter">
            <path d="M20.7613621,2.21415541 L18.8340789,5.09415449 C18.4259793,5.70399051 17.9334123,6.25166134 17.3748433,6.71659345 C17.3450847,12.1849826 13.0795849,17 7.034,17 C5.03232697,17 3.11441906,16.4279476 1.46006076,15.366704 L-2.20704411,13.0143167 L2.11884288,13.5320869 C2.3412516,13.5587073 2.56153103,13.572 2.784,13.572 C3.33892072,13.572 3.88017975,13.4918567 4.39563898,13.337833 C3.67899809,12.8130628 3.12674846,12.068372 2.84479671,11.1894651 L2.5335755,10.2193186 C1.9753284,9.49266354 1.647,8.58463686 1.647,7.609 L1.647,5.87990243 L1.72852455,5.92462131 C1.69319853,5.70283805 1.675,5.47639977 1.675,5.247 C1.675,4.48221505 1.87765667,3.74114709 2.25496222,3.09357303 L2.98223809,1.84534068 L3.89443313,2.9655703 C5.14113404,4.49659299 6.88025811,5.53492393 8.81695362,5.8974013 C9.01095923,3.7128256 10.8459999,2 13.081,2 C14.0712179,2 15.0099769,2.33775592 15.7601194,2.93729665 C16.2123721,2.80599551 16.6465825,2.61762238 17.0529048,2.37728977 L19.3205132,1.03603878 L18.6373277,3.16057888 L20.7613621,2.21415541 Z" id="Path" fill="#FFFFFF"></path>
            <path d="M16.119,5.053 C16.797,4.647 17.316,4.003 17.562,3.238 C16.928,3.613 16.225,3.887 15.478,4.034 C14.878,3.397 14.025,3 13.081,3 C11.269,3 9.8,4.469 9.8,6.281 C9.8,6.537 9.828,6.787 9.884,7.028 C7.156,6.891 4.737,5.584 3.119,3.597 C2.837,4.081 2.675,4.647 2.675,5.247 C2.675,6.384 3.253,7.391 4.134,7.978 C3.597,7.963 3.09,7.812 2.647,7.569 L2.647,7.609 C2.647,9.2 3.778,10.528 5.281,10.828 C5.006,10.903 4.715,10.944 4.415,10.944 C4.203,10.944 4,10.922 3.797,10.884 C4.215,12.187 5.428,13.137 6.862,13.166 C5.737,14.047 4.325,14.572 2.784,14.572 C2.519,14.572 2.259,14.556 2,14.525 C3.456,15.459 5.181,16 7.034,16 C13.072,16 16.375,10.997 16.375,6.659 C16.375,6.516 16.372,6.375 16.365,6.234 C17.006,5.775 17.562,5.197 18.003,4.538 C17.415,4.8 16.781,4.975 16.119,5.053 Z" id="twitter" fill="#4A90E2"></path>
        </g>
    </g>
</svg>